<?xml version="1.0" encoding="utf-8"?>
<!-- Generator: Adobe Illustrator 24.2.3, SVG Export Plug-In . SVG Version: 6.00 Build 0)  -->
<svg version="1.1" id="Capa_1" xmlns="http://www.w3.org/2000/svg" xmlns:xlink="http://www.w3.org/1999/xlink" x="0px" y="0px"
	 viewBox="0 0 1366 768" style="enable-background:new 0 0 1366 768;" xml:space="preserve">
<style type="text/css">
	.st0{fill:#FFFFFF;}
	.st1{fill:#99C00D;}
	.st2{fill:#D93B92;}
	.st3{fill:#479CD5;}
</style>
<g>
	<rect x="192.2" y="155.5" width="981.6" height="457.1"/>
	<g>
		<polygon class="st0" points="1101.2,262.8 1101.2,367.4 1003.9,283 1003.9,283 981.8,262.8 978.2,262.8 978.2,449 1016.8,449 
			1016.8,345 1114,428.8 1136.2,449 1139.8,449 1139.8,262.8 		"/>
		<path class="st0" d="M879.9,263.5c-3.9,0-7.7,0.2-11.5,0.6v-1.5H650.8h-10.4h-46.2c0,0-38.1,3.7-49.3,33.3
			c-11.1,29.6,8.1,54.9,20.6,64.7c12.4,9.9,50.6,36.4,16.7,48c-23.1,0-46.9,0-60.3,0l-66.6-148.2h-4.9l-69.9,149.1h-99.1v-38.1h72.4
			v-36.9h-72.4V295h78v-32.1h-78h-16.7h-24v182.6h38.1h2.6h82.3l-0.1,0.1l45.1-0.1l10.6-27h61.3l10,27.4l32-0.3l0,0h65.7
			c0,0,43.7-4,51.4-36.1c7.7-32.1-12.4-52.7-39-72.4c-26.6-19.7-8.6-41.6,3-41.6c7.5,0,25.3,0,36.7,0v0.9H691v149.6h41.6V296.3h71.2
			c-14.8,16.2-23.7,37.1-23.7,60c0,51.2,44.7,92.8,99.8,92.8s99.8-41.5,99.8-92.8S944.3,263.5,879.9,263.5z M432.1,385.4l18.9-48.2
			l17.5,48.2H432.1z M880.5,414.1c-31.2,0-56.4-25.8-56.4-57.6c0-31.8,25.3-57.6,56.4-57.6s56.4,25.8,56.4,57.6
			C936.9,388.3,911.7,414.1,880.5,414.1z"/>
		<path class="st0" d="M281.4,479.3c-23.9,0-43.2,18.8-43.2,42s19.4,42,43.2,42s43.2-18.8,43.2-42S305.3,479.3,281.4,479.3z
			 M281.5,549.4c-15.9,0-28.9-12.6-28.9-28.1c0-15.5,12.9-28.1,28.9-28.1c15.9,0,28.9,12.6,28.9,28.1
			C310.3,536.8,297.4,549.4,281.5,549.4z"/>
		<path class="st0" d="M412.5,481v47.6v4.3c0,0-2.6,17.3-20.6,17.3s-18.4-17.3-18.4-17.3V481H361v51.9c0,0-1.9,30.3,31.8,30.3
			S427,534,427,534v-1.2v-4.3V481H412.5z"/>
		<polygon class="st0" points="519.4,481 496,481 483.8,481 458.7,481 458.7,493.4 483.8,493.4 483.8,562 496,562 496,493.4 
			519.4,493.4 		"/>
		<polygon class="st0" points="763.7,481 740.3,481 728.1,481 703,481 703,493.4 728.1,493.4 728.1,562 740.3,562 740.3,493.4 
			763.7,493.4 		"/>
		<polygon class="st0" points="567.4,549.5 567.4,481 555.2,481 555.2,549.5 555.2,562 567.4,562 597.9,562 597.9,549.5 		"/>
		<polygon class="st0" points="1038.9,546 1038.9,481 1021.9,481 1021.9,549.5 1021.9,562 1038.9,562 1065.5,562 1065.5,546 		"/>
		<polygon class="st0" points="1116.6,546 1116.6,481 1096.1,481 1096.1,549.5 1096.1,562 1116.6,562 1141.4,562 1141.4,546 		"/>
		<polygon class="st0" points="645,549.5 645,525.5 672,525.5 672,513.1 645,513.1 645,493.4 672,493.4 672,481 645,481 632.2,481 
			630.7,481 630.7,562 632.2,562 645,562 674.9,562 674.9,549.5 		"/>
		<polygon class="st0" points="791.5,562 811.7,562 815.8,526.6 836.1,562 839.3,562 860.8,526.6 865.9,562 885.2,562 872.3,481 
			869.3,481 838.4,531.5 809.1,481 805.5,481 		"/>
		<path class="st0" d="M953.3,481h-3.6l-35.6,81h21.6l2.8-13.1h24.9l3.9,13.1h21L953.3,481z M944.1,533.9l5.8-17.1l5.8,17.1H944.1z"
			/>
	</g>
	<rect x="237.8" y="194" class="st1" width="301.5" height="18"/>
	<rect x="539.3" y="194" class="st2" width="302.1" height="18"/>
	<rect x="841.5" y="194" class="st3" width="298.9" height="18"/>
</g>
</svg>
