<?xml version="1.0" encoding="utf-8"?>
<!-- Generator: Adobe Illustrator 24.2.3, SVG Export Plug-In . SVG Version: 6.00 Build 0)  -->
<svg version="1.1" id="Capa_1" xmlns="http://www.w3.org/2000/svg" xmlns:xlink="http://www.w3.org/1999/xlink" x="0px" y="0px"
	 viewBox="0 0 173 39" style="enable-background:new 0 0 173 39;" xml:space="preserve">
<style type="text/css">
	.st0{fill:#802528;}
	.st1{fill:#D9272E;}
	.st2{fill:#FFFFFF;}
</style>
<g>
	<polygon class="st0" points="124.2,13.7 117.3,6.8 105.6,6.8 118.4,19.5 105.8,32.1 117.5,32.1 124.2,25.2 124.2,13.7 	"/>
	<polygon class="st1" points="117.3,6.8 105.6,6.8 98.9,13.7 98.9,13.7 98.9,25.1 105.9,32.1 111.7,26.3 104.6,19.4 	"/>
	<g>
		<path class="st2" d="M17.3,23.3c0,1.8-0.6,3.2-1.9,4.2c-1.3,1-3.2,1.4-5.7,1.4c-1.3,0-2.4-0.1-3.3-0.3c-0.9-0.2-1.8-0.4-2.6-0.8
			v-4c0.9,0.4,1.9,0.8,3,1.1c1.1,0.3,2.1,0.4,3,0.4c1.8,0,2.6-0.5,2.6-1.5c0-0.4-0.1-0.7-0.3-0.9c-0.2-0.2-0.6-0.5-1.2-0.8
			c-0.6-0.3-1.3-0.7-2.3-1.1c-1.4-0.6-2.4-1.1-3-1.6c-0.6-0.5-1.1-1-1.4-1.7c-0.3-0.6-0.4-1.4-0.4-2.3c0-1.6,0.6-2.8,1.8-3.7
			c1.2-0.9,3-1.3,5.2-1.3c2.1,0,4.2,0.5,6.2,1.4l-1.5,3.5c-0.9-0.4-1.7-0.7-2.5-0.9s-1.6-0.4-2.4-0.4c-1.4,0-2.1,0.4-2.1,1.2
			c0,0.4,0.2,0.8,0.7,1.1c0.5,0.3,1.5,0.8,3,1.4c1.4,0.6,2.4,1.1,3,1.6c0.6,0.5,1.1,1,1.4,1.7C17.2,21.7,17.3,22.4,17.3,23.3"/>
		<path class="st2" d="M29.1,28.9c-2.9,0-5.1-0.8-6.7-2.4C20.8,25,20,22.7,20,19.8c0-3,0.7-5.3,2.2-6.9c1.5-1.6,3.5-2.4,6.2-2.4
			c2.5,0,4.5,0.7,5.9,2.1c1.4,1.4,2.1,3.4,2.1,5.9v2.3H24.9c0.1,1.4,0.5,2.4,1.2,3.2c0.8,0.8,1.8,1.2,3.2,1.2c1.1,0,2.1-0.1,3-0.3
			c1-0.2,1.9-0.6,3-1.1v3.7c-0.8,0.4-1.8,0.7-2.7,0.9C31.7,28.8,30.5,28.9,29.1,28.9 M28.4,14c-1,0-1.8,0.3-2.4,1
			c-0.6,0.6-0.9,1.6-1,2.8h6.8c0-1.2-0.3-2.1-0.9-2.8C30.3,14.3,29.4,14,28.4,14"/>
		<path class="st2" d="M56.6,28.6h-4.8V18.2c0-1.3-0.2-2.2-0.7-2.9c-0.5-0.6-1.2-1-2.2-1c-1.4,0-2.3,0.5-2.9,1.4
			c-0.6,0.9-0.9,2.4-0.9,4.5v8.3h-4.8V10.9H44l0.7,2.3h0.3c0.5-0.9,1.3-1.5,2.2-1.9c0.9-0.4,2-0.7,3.2-0.7c2.1,0,3.6,0.6,4.7,1.7
			c1.1,1.1,1.6,2.7,1.6,4.8L56.6,28.6L56.6,28.6z"/>
		<path class="st2" d="M69.6,28.9c-2.9,0-5.1-0.8-6.7-2.4c-1.6-1.6-2.4-3.8-2.4-6.7c0-3,0.7-5.3,2.2-6.9c1.5-1.6,3.5-2.4,6.2-2.4
			c2.5,0,4.5,0.7,5.9,2.1c1.4,1.4,2.1,3.4,2.1,5.9v2.3H65.4c0.1,1.4,0.5,2.4,1.2,3.2c0.8,0.8,1.8,1.2,3.2,1.2c1.1,0,2.1-0.1,3-0.3
			c1-0.2,1.9-0.6,3-1.1v3.7c-0.8,0.4-1.7,0.7-2.7,0.9C72.2,28.8,71,28.9,69.6,28.9 M69,14c-1,0-1.8,0.3-2.4,1
			c-0.6,0.6-0.9,1.6-1,2.8h6.8c0-1.2-0.3-2.1-0.9-2.8C70.8,14.3,70,14,69,14"/>
		<path class="st2" d="M96.2,10.9v2.5L93.5,14c0.5,0.8,0.8,1.7,0.8,2.7c0,1.9-0.7,3.4-2,4.4c-1.3,1.1-3.2,1.6-5.5,1.6l-0.9,0
			l-0.7-0.1c-0.5,0.4-0.7,0.8-0.7,1.3c0,0.7,0.9,1,2.7,1h3c1.9,0,3.4,0.4,4.4,1.3c1,0.8,1.5,2.1,1.5,3.7c0,2.1-0.9,3.7-2.6,4.8
			c-1.7,1.1-4.2,1.7-7.4,1.7c-2.5,0-4.4-0.4-5.7-1.3c-1.3-0.9-2-2.1-2-3.6c0-1.1,0.3-2,1-2.7c0.7-0.7,1.6-1.2,2.9-1.5
			c-0.5-0.2-0.9-0.6-1.3-1c-0.4-0.5-0.6-1-0.6-1.5c0-0.7,0.2-1.2,0.6-1.7c0.4-0.4,1-0.9,1.7-1.3c-0.9-0.4-1.7-1-2.2-1.9
			c-0.5-0.9-0.8-1.9-0.8-3.1c0-1.9,0.6-3.4,1.9-4.5c1.3-1.1,3.1-1.6,5.4-1.6c0.5,0,1.1,0,1.8,0.1c0.7,0.1,1.1,0.2,1.3,0.2L96.2,10.9
			L96.2,10.9z M82.6,31.1c0,0.7,0.3,1.2,1,1.6c0.6,0.4,1.5,0.6,2.7,0.6c1.7,0,3.1-0.2,4.1-0.7c1-0.5,1.5-1.1,1.5-2
			c0-0.7-0.3-1.1-0.9-1.4c-0.6-0.3-1.5-0.4-2.7-0.4h-2.5c-0.9,0-1.6,0.2-2.2,0.6C82.9,29.8,82.6,30.4,82.6,31.1 M84.3,16.7
			c0,1,0.2,1.7,0.7,2.3c0.4,0.6,1.1,0.8,2,0.8c0.9,0,1.6-0.3,2-0.8c0.4-0.6,0.6-1.3,0.6-2.3c0-2.1-0.9-3.2-2.6-3.2
			C85.2,13.5,84.3,14.5,84.3,16.7"/>
		<path class="st2" d="M135.4,28.9c-5.5,0-8.3-3-8.3-9.1c0-3,0.8-5.3,2.3-6.9c1.5-1.6,3.7-2.4,6.5-2.4c2.1,0,3.9,0.4,5.5,1.2
			l-1.4,3.7c-0.8-0.3-1.5-0.6-2.1-0.8c-0.7-0.2-1.3-0.3-2-0.3c-2.5,0-3.8,1.8-3.8,5.4c0,3.5,1.3,5.2,3.8,5.2c0.9,0,1.8-0.1,2.6-0.4
			c0.8-0.2,1.6-0.6,2.4-1.2v4.1c-0.8,0.5-1.6,0.8-2.4,1C137.6,28.8,136.6,28.9,135.4,28.9"/>
		<path class="st2" d="M144.7,6.3c0-1.6,0.9-2.4,2.6-2.4c1.8,0,2.6,0.8,2.6,2.4c0,0.8-0.2,1.3-0.7,1.8c-0.4,0.4-1.1,0.6-2,0.6
			C145.6,8.6,144.7,7.9,144.7,6.3 M149.8,28.6h-4.8V10.9h4.8V28.6z"/>
		<path class="st2" d="M166.1,28.6l-0.9-2.4H165c-0.8,1-1.7,1.7-2.5,2.1c-0.9,0.4-2,0.6-3.4,0.6c-1.7,0-3-0.5-4-1.5
			c-1-1-1.5-2.4-1.5-4.2c0-1.9,0.7-3.3,2-4.2c1.3-0.9,3.3-1.4,6-1.5l3.1-0.1v-0.8c0-1.8-0.9-2.7-2.8-2.7c-1.4,0-3.1,0.4-5,1.3
			l-1.6-3.3c2-1.1,4.3-1.6,6.8-1.6c2.4,0,4.2,0.5,5.5,1.6c1.3,1,1.9,2.6,1.9,4.7v11.8L166.1,28.6L166.1,28.6L166.1,28.6z
			 M164.7,20.4l-1.9,0.1c-1.4,0-2.5,0.3-3.1,0.8c-0.7,0.5-1,1.2-1,2.1c0,1.4,0.8,2,2.3,2c1.1,0,2-0.3,2.7-1c0.7-0.6,1-1.5,1-2.6
			V20.4L164.7,20.4z"/>
	</g>
</g>
</svg>
